<svg width="1295" height="1201" viewBox="0 0 1295 1201" fill="none" xmlns="http://www.w3.org/2000/svg">
<g opacity="0.5">
<g style="mix-blend-mode:overlay">
<circle cx="111.11" cy="405.442" r="6.55421" transform="rotate(-76.2652 111.11 405.442)" fill="#FF6900"/>
</g>
<circle cx="233.917" cy="330.869" r="3.2788" transform="rotate(-76.2652 233.917 330.869)" fill="#FF6900"/>
<g style="mix-blend-mode:overlay">
<circle cx="4.14712" cy="166.754" r="3.2788" transform="rotate(-76.2652 4.14712 166.754)" fill="#FF6900"/>
</g>
<circle cx="587.182" cy="72.8613" r="3.2788" transform="rotate(-76.2652 587.182 72.8613)" fill="#FF6900"/>
<g style="mix-blend-mode:overlay">
<circle cx="436.53" cy="164.487" r="3.2788" transform="rotate(-76.2652 436.53 164.487)" fill="#FF6900"/>
</g>
<g style="mix-blend-mode:overlay">
<circle cx="275.243" cy="175.669" r="6.55421" transform="rotate(-76.2652 275.243 175.669)" fill="#FF6900"/>
</g>
<circle cx="128.935" cy="153.429" r="6.55421" transform="rotate(-76.2652 128.935 153.429)" fill="#FF6900"/>
<g style="mix-blend-mode:overlay">
<circle cx="386.721" cy="368.213" r="3.2788" transform="rotate(-76.2652 386.721 368.213)" fill="#FF6900"/>
</g>
<circle cx="283.303" cy="75.4145" r="3.2788" transform="rotate(-76.2652 283.303 75.4145)" fill="#FF6900"/>
<g style="mix-blend-mode:overlay">
<circle cx="131.479" cy="197.883" r="3.2788" transform="rotate(-76.2652 131.479 197.883)" fill="#FF6900"/>
</g>
<g style="mix-blend-mode:overlay">
<circle cx="511.634" cy="374.175" r="6.6449" transform="rotate(-9.69464 511.634 374.175)" fill="#FF6900"/>
</g>
<g style="mix-blend-mode:overlay">
<circle cx="630.54" cy="458.372" r="3.32417" transform="rotate(-9.69464 630.54 458.372)" fill="#FF6900"/>
</g>
<g style="mix-blend-mode:overlay">
<circle cx="690.567" cy="178.445" r="3.32417" transform="rotate(-9.69464 690.567 178.445)" fill="#FF6900"/>
</g>
<g style="mix-blend-mode:overlay">
<circle cx="988.364" cy="343.297" r="3.32417" transform="rotate(-9.69464 988.364 343.297)" fill="#FF6900"/>
</g>
<circle cx="866.985" cy="579.751" r="3.32417" transform="rotate(-9.69464 866.985 579.751)" fill="#FF6900"/>
<g style="mix-blend-mode:overlay">
<circle cx="791.544" cy="434.226" r="6.6449" transform="rotate(-9.69464 791.544 434.226)" fill="#FF6900"/>
</g>
<g style="mix-blend-mode:overlay">
<circle cx="912.931" cy="197.761" r="6.6449" transform="rotate(-9.69464 912.931 197.761)" fill="#FF6900"/>
</g>
<circle cx="1028.96" cy="521.737" r="6.6449" transform="rotate(-9.69464 1028.96 521.737)" fill="#FF6900"/>
<circle cx="657.376" cy="615.552" r="3.32417" transform="rotate(-9.69464 657.376 615.552)" fill="#FF6900"/>
<circle cx="810.098" cy="562.504" r="3.32417" transform="rotate(-9.69464 810.098 562.504)" fill="#FF6900"/>
<g style="mix-blend-mode:overlay">
<circle cx="856.704" cy="203.999" r="3.32417" transform="rotate(-9.69464 856.704 203.999)" fill="#FF6900"/>
</g>
<g style="mix-blend-mode:overlay">
<circle cx="712.942" cy="309.454" r="3.32417" transform="rotate(-9.69464 712.942 309.454)" fill="#FF6900"/>
</g>
<circle cx="1292.1" cy="887.586" r="7.25133" transform="rotate(-71.272 1292.1 887.586)" fill="#FF6900"/>
<circle cx="1180.98" cy="657.716" r="3.62754" transform="rotate(-71.272 1180.98 657.716)" fill="#FF6900"/>
<circle cx="1291.79" cy="511.532" r="3.62754" transform="rotate(-71.272 1291.79 511.532)" fill="#FF6900"/>
<g style="mix-blend-mode:overlay">
<circle cx="511.876" cy="982.698" r="4.02117" transform="rotate(-130.143 511.876 982.698)" fill="#FF6900"/>
</g>
<g style="mix-blend-mode:overlay">
<circle cx="183.169" cy="1091.65" r="4.02117" transform="rotate(-130.143 183.169 1091.65)" fill="#FF6900"/>
</g>
<g style="mix-blend-mode:overlay">
<circle cx="172.517" cy="680.044" r="4.02117" transform="rotate(-130.143 172.517 680.044)" fill="#FF6900"/>
</g>
<g style="mix-blend-mode:overlay">
<circle cx="493.513" cy="661.687" r="4.02117" transform="rotate(-130.143 493.513 661.687)" fill="#FF6900"/>
</g>
<g style="mix-blend-mode:overlay">
<circle cx="387.99" cy="829.561" r="8.03819" transform="rotate(-130.143 387.99 829.561)" fill="#FF6900"/>
</g>
<circle cx="45.5251" cy="736.505" r="8.03819" transform="rotate(-130.143 45.5251 736.505)" fill="#FF6900"/>
<g style="mix-blend-mode:overlay">
<circle cx="353.826" cy="645.952" r="8.03819" transform="rotate(-130.143 353.826 645.952)" fill="#FF6900"/>
</g>
<g style="mix-blend-mode:overlay">
<circle cx="659.341" cy="858.313" r="4.02117" transform="rotate(-130.143 659.341 858.313)" fill="#FF6900"/>
</g>
<g style="mix-blend-mode:overlay">
<circle cx="510.403" cy="731.575" r="4.02117" transform="rotate(-130.143 510.403 731.575)" fill="#FF6900"/>
</g>
<circle cx="226.275" cy="848.311" r="4.02117" transform="rotate(-130.143 226.275 848.311)" fill="#FF6900"/>
<g style="mix-blend-mode:overlay">
<circle cx="306.056" cy="988.022" r="4.02117" transform="rotate(-130.143 306.056 988.022)" fill="#FF6900"/>
</g>
<g style="mix-blend-mode:overlay">
<circle cx="766.283" cy="251.035" r="4.60917" transform="rotate(-76.2652 766.283 251.035)" fill="#FF6900"/>
</g>
<g style="mix-blend-mode:overlay">
<circle cx="801.025" cy="1069" r="5.65275" transform="rotate(-130.143 801.025 1069)" fill="#FF6900"/>
</g>
</g>
</svg>
