<svg width="122" height="26" viewBox="0 0 122 26" fill="none" xmlns="http://www.w3.org/2000/svg">
<rect x="42.1484" y="9.47229" width="1.66598" height="2.97162" transform="rotate(44 42.1484 9.47229)" fill="#FF6900"/>
<rect x="36.9648" y="14.6716" width="1.66598" height="2.84117" transform="rotate(44 36.9648 14.6716)" fill="#FF6900"/>
<rect width="1.66598" height="2.9053" transform="matrix(-0.71934 0.694658 0.694658 0.71934 36.207 9.52441)" fill="#FF6900"/>
<rect width="1.66598" height="3.08478" transform="matrix(-0.71934 0.694658 0.694658 0.71934 41.1914 14.6513)" fill="#FF6900"/>
<circle cx="44.1969" cy="8.5058" r="2.58756" fill="#FF6900"/>
<circle cx="34.0094" cy="8.5058" r="2.58756" fill="#FF6900"/>
<circle cx="34.0094" cy="18.8561" r="2.58756" fill="#FF6900"/>
<circle cx="44.1969" cy="18.8561" r="2.58756" fill="#FF6900"/>
<circle cx="39.1852" cy="13.681" r="2.58756" fill="#FF6900"/>
<path d="M50.2045 20.9131C49.6253 20.6887 49.4515 20.2905 49.6832 19.7185L54.8528 6.99012C55.07 6.51226 55.4103 6.27333 55.8736 6.27333H55.9171C56.3877 6.29505 56.7063 6.53398 56.8728 6.99012L62.1292 19.7185C62.3609 20.2905 62.1944 20.6887 61.6296 20.9131C61.0577 21.1376 60.6594 20.971 60.435 20.4135L59.2621 17.5681H52.4961L51.3774 20.4135C51.153 20.9783 50.762 21.1448 50.2045 20.9131ZM53.2128 15.7436H58.5127L55.8085 9.16219L53.2128 15.7436ZM69.498 21C67.84 21 66.6127 20.6054 65.8163 19.8162C65.0271 19.0198 64.6325 17.7926 64.6325 16.1346V11.1388C64.6325 9.46628 65.0271 8.23544 65.8163 7.44625C66.6055 6.64983 67.8255 6.25885 69.4763 6.27333H72.1045C73.4656 6.27333 74.5046 6.5557 75.2214 7.12044C75.9382 7.67794 76.3545 8.56125 76.4703 9.77037C76.5138 10.0745 76.4559 10.3062 76.2966 10.4654C76.1373 10.6247 75.9056 10.7044 75.6015 10.7044C75.0512 10.7044 74.7327 10.4003 74.6458 9.79209C74.5734 9.12599 74.3417 8.6771 73.9507 8.44541C73.567 8.21372 72.9516 8.09788 72.1045 8.09788H69.4763C68.7088 8.09064 68.1042 8.17752 67.6626 8.35852C67.2282 8.53953 66.9168 8.85448 66.7286 9.30338C66.5476 9.74503 66.4571 10.3568 66.4571 11.1388V16.1346C66.4571 16.9093 66.5476 17.5174 66.7286 17.9591C66.9168 18.4008 67.2318 18.7157 67.6734 18.9039C68.1151 19.085 68.7233 19.1755 69.498 19.1755H72.1045C72.7778 19.1755 73.3027 19.1031 73.6792 18.9582C74.0629 18.8062 74.3308 18.5419 74.4829 18.1654C74.6349 17.7889 74.711 17.2568 74.711 16.569V15.5481L73.0167 15.5264C72.4086 15.5264 72.1045 15.2223 72.1045 14.6141C72.1045 14.0059 72.4086 13.7018 73.0167 13.7018L75.6232 13.7235C76.2314 13.7235 76.5355 14.0276 76.5355 14.6358V16.569C76.5355 18.1111 76.1771 19.237 75.4603 19.9465C74.7435 20.6488 73.6249 21 72.1045 21H69.498ZM81.2324 21C80.6243 21 80.3202 20.6959 80.3202 20.0877V7.1856C80.3202 6.57742 80.6243 6.27333 81.2324 6.27333H89.0302C89.6384 6.27333 89.9425 6.57742 89.9425 7.1856C89.9425 7.79378 89.6384 8.09788 89.0302 8.09788H82.1447V12.6592H86.4671C87.0753 12.6592 87.3794 12.9633 87.3794 13.5715C87.3794 14.1797 87.0753 14.4838 86.4671 14.4838H82.1447V19.1755H89.0302C89.6384 19.1755 89.9425 19.4795 89.9425 20.0877C89.9425 20.6959 89.6384 21 89.0302 21H81.2324ZM94.32 21C93.7119 21 93.4078 20.6959 93.4078 20.0877V7.1856C93.4078 6.57742 93.7119 6.27333 94.32 6.27333C94.6314 6.27333 94.9355 6.45434 95.2323 6.81635L103.964 18.0677H103.508V7.1856C103.508 6.57742 103.812 6.27333 104.42 6.27333C105.028 6.27333 105.332 6.57742 105.332 7.1856V20.0877C105.332 20.6959 105.028 21 104.42 21C104.094 21 103.79 20.819 103.508 20.457L94.7762 9.20563H95.2323V20.0877C95.2323 20.6959 94.9282 21 94.32 21ZM114.256 21C113.952 21 113.724 20.924 113.572 20.7719C113.42 20.6199 113.344 20.3918 113.344 20.0877V8.1196H109.13C108.826 8.1196 108.598 8.04357 108.446 7.89153C108.294 7.73948 108.218 7.51142 108.218 7.20732C108.218 6.90323 108.294 6.67517 108.446 6.52312C108.598 6.37108 108.826 6.29505 109.13 6.29505H119.382C119.686 6.29505 119.914 6.37108 120.066 6.52312C120.218 6.67517 120.294 6.90323 120.294 7.20732C120.294 7.51142 120.218 7.73948 120.066 7.89153C119.914 8.04357 119.686 8.1196 119.382 8.1196H115.168V20.0877C115.168 20.3773 115.089 20.6018 114.929 20.7611C114.777 20.9204 114.553 21 114.256 21Z" fill="white"/>
<path d="M3.17123 21C2.56305 21 2.25896 20.6959 2.25896 20.0877V7.1856C2.25896 6.57742 2.56305 6.27333 3.17123 6.27333C3.48256 6.27333 3.78665 6.45434 4.0835 6.81635L12.8152 18.0677H12.3591V7.1856C12.3591 6.57742 12.6632 6.27333 13.2714 6.27333C13.8796 6.27333 14.1836 6.57742 14.1836 7.1856V20.0877C14.1836 20.6959 13.8796 21 13.2714 21C12.9456 21 12.6415 20.819 12.3591 20.457L3.62736 9.20563H4.0835V20.0877C4.0835 20.6959 3.77941 21 3.17123 21ZM19.6103 21C19.0021 21 18.698 20.6959 18.698 20.0877V7.1856C18.698 6.57742 19.0021 6.27333 19.6103 6.27333H27.408C28.0162 6.27333 28.3203 6.57742 28.3203 7.1856C28.3203 7.79378 28.0162 8.09788 27.408 8.09788H20.5225V12.6592H24.845C25.4532 12.6592 25.7572 12.9633 25.7572 13.5715C25.7572 14.1797 25.4532 14.4838 24.845 14.4838H20.5225V19.1755H27.408C28.0162 19.1755 28.3203 19.4795 28.3203 20.0877C28.3203 20.6959 28.0162 21 27.408 21H19.6103Z" fill="white"/>
</svg>
