<svg width="18" height="14" viewBox="0 0 18 14" fill="none" xmlns="http://www.w3.org/2000/svg">
<path d="M11.5 7C11.5 7.66304 11.2366 8.29893 10.7678 8.76777C10.2989 9.23661 9.66304 9.5 9 9.5C8.33696 9.5 7.70107 9.23661 7.23223 8.76777C6.76339 8.29893 6.5 7.66304 6.5 7C6.5 6.33696 6.76339 5.70107 7.23223 5.23223C7.70107 4.76339 8.33696 4.5 9 4.5C9.66304 4.5 10.2989 4.76339 10.7678 5.23223C11.2366 5.70107 11.5 6.33696 11.5 7Z" stroke="white" stroke-width="1.25" stroke-linecap="round" stroke-linejoin="round"/>
<path d="M0.667969 6.99984C2.0013 3.58567 5.11464 1.1665 9.0013 1.1665C12.888 1.1665 16.0013 3.58567 17.3346 6.99984C16.0013 10.414 12.888 12.8332 9.0013 12.8332C5.11464 12.8332 2.0013 10.414 0.667969 6.99984Z" stroke="white" stroke-width="1.25" stroke-linecap="round" stroke-linejoin="round"/>
</svg>
