<svg width="8" height="14" viewBox="0 0 8 14" fill="none" xmlns="http://www.w3.org/2000/svg">
<path d="M7 3H6.5V0H5.5V3H2.5V0H1.5V3H1C0.734784 3 0.48043 3.10536 0.292893 3.29289C0.105357 3.48043 0 3.73478 0 4V7C0.0019528 7.97334 0.358304 8.91267 1.00244 9.64239C1.64658 10.3721 2.53442 10.8423 3.5 10.965V14H4.5V10.965C5.46558 10.8423 6.35342 10.3721 6.99756 9.64239C7.6417 8.91267 7.99805 7.97334 8 7V4C8 3.73478 7.89464 3.48043 7.70711 3.29289C7.51957 3.10536 7.26522 3 7 3ZM7 7C7 7.79565 6.68393 8.55871 6.12132 9.12132C5.55871 9.68393 4.79565 10 4 10C3.20435 10 2.44129 9.68393 1.87868 9.12132C1.31607 8.55871 1 7.79565 1 7V4H7V7Z" fill="white"/>
</svg>
