<svg width="23" height="23" viewBox="0 0 23 23" fill="none" xmlns="http://www.w3.org/2000/svg">
<path d="M19.7988 11.8786L21.2589 13.1789C21.5286 13.4039 21.7087 13.718 21.7668 14.0643C21.8249 14.4107 21.757 14.7664 21.5755 15.067L19.8149 18.0746C19.6783 18.3048 19.4833 18.4948 19.2496 18.6253C19.0132 18.7562 18.7477 18.8256 18.4775 18.8272C18.3099 18.8283 18.1432 18.8032 17.9833 18.7529L16.1145 18.1359C15.7871 18.3459 15.4469 18.5338 15.0937 18.6996L14.7012 20.5943C14.6285 20.9428 14.4345 21.2542 14.1536 21.473C13.8692 21.6956 13.5165 21.8132 13.1554 21.8057H9.50987C9.14873 21.8132 8.7961 21.6956 8.51167 21.473C8.2314 21.2539 8.03794 20.9426 7.96573 20.5943L7.57162 18.6996C7.22306 18.5316 6.88487 18.3428 6.55888 18.1343L4.68363 18.7529C4.52373 18.8032 4.35698 18.8283 4.18937 18.8272C3.91973 18.8253 3.65485 18.7559 3.41892 18.6253C3.18542 18.4952 2.99041 18.3058 2.85359 18.0762L1.03002 15.067C0.84044 14.7637 0.768002 14.4016 0.826282 14.0486C0.884562 13.6957 1.06956 13.3761 1.3466 13.1498L2.80514 11.3068V10.735L1.34499 9.43479C1.07535 9.20978 0.895184 8.89567 0.837113 8.54931C0.779041 8.20296 0.8469 7.84726 1.0284 7.54661L2.85198 4.53909C2.98857 4.30887 3.1836 4.11885 3.4173 3.9883C3.65324 3.85774 3.91811 3.78833 4.18776 3.7864C4.35385 3.77592 4.52057 3.79118 4.68201 3.83163L6.52012 4.47771C6.84855 4.26773 7.18882 4.07983 7.54093 3.914L7.93504 2.01936C8.00725 1.67107 8.20071 1.3597 8.48099 1.14069C8.76541 0.918023 9.11804 0.800479 9.47919 0.807953H13.094C13.4552 0.800479 13.8078 0.918023 14.0922 1.14069C14.3749 1.36197 14.5687 1.67371 14.6382 2.01936L15.0323 3.914C15.3822 4.08091 15.7198 4.26935 16.045 4.47933L17.9219 3.86232C18.1302 3.79455 18.3503 3.77076 18.5683 3.79245C18.7862 3.81413 18.9973 3.88083 19.1882 3.9883C19.4224 4.12075 19.6162 4.31134 19.7535 4.53747L21.5755 7.54661C21.7676 7.8474 21.8438 8.20782 21.7897 8.56061C21.7356 8.9134 21.555 9.23446 21.2815 9.46387L19.7988 10.727V11.8786Z" stroke="white" stroke-width="1.61521"/>
<path d="M15.3436 11.3068C15.3436 12.3778 14.9182 13.4049 14.1609 14.1621C13.4036 14.9194 12.3766 15.3449 11.3056 15.3449C10.2347 15.3449 9.20757 14.9194 8.45029 14.1621C7.69301 13.4049 7.26758 12.3778 7.26758 11.3068C7.26758 10.2359 7.69301 9.20879 8.45029 8.45151C9.20757 7.69423 10.2347 7.2688 11.3056 7.2688C12.3766 7.2688 13.4036 7.69423 14.1609 8.45151C14.9182 9.20879 15.3436 10.2359 15.3436 11.3068Z" stroke="white" stroke-width="1.61521"/>
</svg>
