<svg width="22" height="22" viewBox="0 0 22 22" fill="none" xmlns="http://www.w3.org/2000/svg">
<path d="M11.9632 14.896H10.2398C9.02066 14.896 8.02148 13.8694 8.02148 12.6044C8.02148 12.2285 8.33315 11.9169 8.70898 11.9169C9.08482 11.9169 9.39648 12.2285 9.39648 12.6044C9.39648 13.1085 9.77232 13.521 10.2398 13.521H11.9632C12.3207 13.521 12.6048 13.2002 12.6048 12.806C12.6048 12.311 12.4673 12.2377 12.1557 12.1277L9.39648 11.1652C8.80982 10.9635 8.02148 10.5327 8.02148 9.18519C8.02148 8.03938 8.92899 7.09521 10.0382 7.09521H11.7615C12.9807 7.09521 13.9798 8.12188 13.9798 9.38685C13.9798 9.76269 13.6682 10.0744 13.2923 10.0744C12.9165 10.0744 12.6048 9.76269 12.6048 9.38685C12.6048 8.88271 12.229 8.47021 11.7615 8.47021H10.0382C9.68065 8.47021 9.39648 8.79105 9.39648 9.18519C9.39648 9.68019 9.53398 9.75352 9.84565 9.86352L12.6048 10.826C13.1915 11.0277 13.9798 11.4585 13.9798 12.806C13.9798 13.961 13.0723 14.896 11.9632 14.896Z" fill="white"/>
<path d="M11 15.8125C10.6242 15.8125 10.3125 15.5008 10.3125 15.125V6.875C10.3125 6.49917 10.6242 6.1875 11 6.1875C11.3758 6.1875 11.6875 6.49917 11.6875 6.875V15.125C11.6875 15.5008 11.3758 15.8125 11 15.8125Z" fill="white"/>
<path d="M11.0007 20.8542C5.56482 20.8542 1.14648 16.4358 1.14648 11C1.14648 5.56418 5.56482 1.14584 11.0007 1.14584C11.3765 1.14584 11.6882 1.45751 11.6882 1.83334C11.6882 2.20918 11.3765 2.52084 11.0007 2.52084C6.32565 2.52084 2.52148 6.32501 2.52148 11C2.52148 15.675 6.32565 19.4792 11.0007 19.4792C15.6757 19.4792 19.4798 15.675 19.4798 11C19.4798 10.6242 19.7915 10.3125 20.1673 10.3125C20.5432 10.3125 20.8548 10.6242 20.8548 11C20.8548 16.4358 16.4365 20.8542 11.0007 20.8542Z" fill="white"/>
<path d="M19.2507 7.10417H15.584C15.2082 7.10417 14.8965 6.7925 14.8965 6.41667V2.75C14.8965 2.37417 15.2082 2.0625 15.584 2.0625C15.9598 2.0625 16.2715 2.37417 16.2715 2.75V5.72917H19.2507C19.6265 5.72917 19.9382 6.04083 19.9382 6.41667C19.9382 6.7925 19.6265 7.10417 19.2507 7.10417Z" fill="white"/>
<path d="M15.5836 7.10457C15.4095 7.10457 15.2353 7.0404 15.0978 6.9029C14.832 6.63707 14.832 6.19707 15.0978 5.93124L19.6811 1.3479C19.947 1.08207 20.387 1.08207 20.6528 1.3479C20.9186 1.61374 20.9186 2.05374 20.6528 2.31957L16.0695 6.9029C15.932 7.0404 15.7578 7.10457 15.5836 7.10457Z" fill="white"/>
</svg>
