<svg width="22" height="22" viewBox="0 0 22 22" fill="none" xmlns="http://www.w3.org/2000/svg">
<path d="M0 2C0 1.46957 0.210714 0.960859 0.585786 0.585786C0.960859 0.210714 1.46957 0 2 0H8.5C9.03043 0 9.53914 0.210714 9.91421 0.585786C10.2893 0.960859 10.5 1.46957 10.5 2V8.5C10.5 9.03043 10.2893 9.53914 9.91421 9.91421C9.53914 10.2893 9.03043 10.5 8.5 10.5H6V14.563C6 15.355 6.644 16 7.438 16H11.5V13.5C11.5 12.9696 11.7107 12.4609 12.0858 12.0858C12.4609 11.7107 12.9696 11.5 13.5 11.5H20C20.5304 11.5 21.0391 11.7107 21.4142 12.0858C21.7893 12.4609 22 12.9696 22 13.5V20C22 20.5304 21.7893 21.0391 21.4142 21.4142C21.0391 21.7893 20.5304 22 20 22H13.5C12.9696 22 12.4609 21.7893 12.0858 21.4142C11.7107 21.0391 11.5 20.5304 11.5 20V17.5H7.437C6.65813 17.4992 5.9114 17.1894 5.36075 16.6385C4.8101 16.0877 4.50053 15.3409 4.5 14.562V10.5H2C1.46957 10.5 0.960859 10.2893 0.585786 9.91421C0.210714 9.53914 0 9.03043 0 8.5V2ZM2 1.5C1.86739 1.5 1.74021 1.55268 1.64645 1.64645C1.55268 1.74021 1.5 1.86739 1.5 2V8.5C1.5 8.63261 1.55268 8.75979 1.64645 8.85355C1.74021 8.94732 1.86739 9 2 9H8.5C8.63261 9 8.75979 8.94732 8.85355 8.85355C8.94732 8.75979 9 8.63261 9 8.5V2C9 1.86739 8.94732 1.74021 8.85355 1.64645C8.75979 1.55268 8.63261 1.5 8.5 1.5H2ZM13.5 13C13.3674 13 13.2402 13.0527 13.1464 13.1464C13.0527 13.2402 13 13.3674 13 13.5V20C13 20.1326 13.0527 20.2598 13.1464 20.3536C13.2402 20.4473 13.3674 20.5 13.5 20.5H20C20.1326 20.5 20.2598 20.4473 20.3536 20.3536C20.4473 20.2598 20.5 20.1326 20.5 20V13.5C20.5 13.3674 20.4473 13.2402 20.3536 13.1464C20.2598 13.0527 20.1326 13 20 13H13.5Z" fill="white"/>
</svg>
