<svg width="218" height="202" viewBox="0 0 218 202" fill="none" xmlns="http://www.w3.org/2000/svg">
<path d="M76.0761 111.963L141.377 111.052M76.0761 111.963L107.903 55.1825M76.0761 111.963L56.3468 123.788M76.0761 111.963L55.1159 63.0008M76.0761 111.963L109.565 153.871M141.377 111.052L107.903 55.1825M141.377 111.052L161.145 61.2851M141.377 111.052L161.612 122.6M141.377 111.052L109.565 153.871M107.903 55.1825L161.145 61.2851M107.903 55.1825L107.77 31.5735M107.903 55.1825L55.1159 63.0008M161.145 61.2851L161.612 122.6M161.145 61.2851L107.77 31.5735M161.612 122.6L109.565 153.871M109.565 153.871L56.3468 123.788M56.3468 123.788L55.1159 63.0008M55.1159 63.0008L107.77 31.5735" stroke="white" stroke-width="1.22657" stroke-linecap="round" stroke-linejoin="round"/>
</svg>
