<svg width="16" height="16" viewBox="0 0 16 16" fill="none" xmlns="http://www.w3.org/2000/svg">
<path d="M11.4922 8C11.89 8 12.2715 8.15804 12.5528 8.43934C12.8342 8.72064 12.9922 9.10218 12.9922 9.5V10C12.9922 11.971 11.1322 14 7.99219 14C4.85219 14 2.99219 11.971 2.99219 10V9.5C2.99219 9.10218 3.15022 8.72064 3.43153 8.43934C3.71283 8.15804 4.09436 8 4.49219 8H11.4922ZM11.4922 9H4.49219C4.35958 9 4.2324 9.05268 4.13863 9.14645C4.04487 9.24021 3.99219 9.36739 3.99219 9.5V10C3.99219 11.438 5.42419 13 7.99219 13C10.5602 13 11.9922 11.438 11.9922 10V9.5C11.9922 9.36739 11.9395 9.24021 11.8457 9.14645C11.752 9.05268 11.6248 9 11.4922 9ZM7.99219 1.5C8.72153 1.5 9.42101 1.78973 9.93673 2.30546C10.4525 2.82118 10.7422 3.52065 10.7422 4.25C10.7422 4.97935 10.4525 5.67882 9.93673 6.19454C9.42101 6.71027 8.72153 7 7.99219 7C7.26284 7 6.56337 6.71027 6.04764 6.19454C5.53192 5.67882 5.24219 4.97935 5.24219 4.25C5.24219 3.52065 5.53192 2.82118 6.04764 2.30546C6.56337 1.78973 7.26284 1.5 7.99219 1.5ZM7.99219 2.5C7.52806 2.5 7.08294 2.68437 6.75475 3.01256C6.42656 3.34075 6.24219 3.78587 6.24219 4.25C6.24219 4.71413 6.42656 5.15925 6.75475 5.48744C7.08294 5.81563 7.52806 6 7.99219 6C8.45632 6 8.90144 5.81563 9.22962 5.48744C9.55781 5.15925 9.74219 4.71413 9.74219 4.25C9.74219 3.78587 9.55781 3.34075 9.22962 3.01256C8.90144 2.68437 8.45632 2.5 7.99219 2.5Z" fill="white"/>
</svg>
